{"title":"The Vow 2012 CAM XviD-INFERNO","uid":7040641,"size":784558073,"categoryP":"video","categoryS":"movies","magnet":"?xt=urn:btih:b60415582df5a5e0f11f17fdc83abaa5e5186438&amp;dn=The+Vow+2012+CAM+XviD-INFERNO&amp;tr=udp%3A%2F%2Ftracker.openbittorrent.com%3A80&amp;tr=udp%3A%2F%2Fopen.demonii.com%3A1337&amp;tr=udp%3A%2F%2Ftracker.coppersurfer.tk%3A6969&amp;tr=udp%3A%2F%2Fexodus.desync.com%3A6969","seeders":6,"leechers":1,"uploader":"Hackulus","files":-1,"time":1329525178,"description":"\n &lt;a href=&quot;\nhttp://www.imdb.com/title/tt1606389/&quot; rel=&quot;nofollow&quot; target=&quot;_NEW&quot;&gt;\nhttp://www.imdb.com/title/tt1606389/&lt;/a&gt;\n\n\nSo we got a nice cam of The Vow here\nfor you.Not to much to say here\ndid the normal rotate,crop, resize\nand adjusted this and that , came out really nice.\nAudio is cam but it's very good which we still filtered\nto make even better. Had to do a pretty big crop\non this one to remove some subs , still see\nalittle of them throughout. So enjoy.\n\n\nThe.Vow.2012.CAM.XviD-INFERNO\n\n\nFormat                           : AVI\nFormat/Info                      : Audio Video Interleave\nFile size                        : 740 MiB\nDuration                         : 1h 39mn\nOverall bit rate                 : 1 040 Kbps\n\nVideo\nID                               : 0\nFormat                           : MPEG-4 Visual\nFormat profile                   : Advanced Simple@L5\nFormat settings, BVOP            : 2\nFormat settings, QPel            : No\nFormat settings, GMC             : No warppoints\nFormat settings, Matrix          : Default (MPEG)\nMuxing mode                      : Packed bitstream\nCodec ID                         : XVID\nCodec ID/Hint                    : XviD\nDuration                         : 1h 39mn\nBit rate                         : 900 Kbps\nWidth                            : 640 pixels\nHeight                           : 272 pixels\nDisplay aspect ratio             : 2.35:1\nFrame rate                       : 29.970 fps\nColor space                      : YUV\nChroma subsampling               : 4:2:0\nBit depth                        : 8 bits\nScan type                        : Progressive\nCompression mode                 : Lossy\nBits/(Pixel*Frame)               : 0.173\nStream size                      : 641 MiB (87%)\nWriting library                  : XviD 64\n\nAudio\nID                               : 1\nFormat                           : MPEG Audio\nFormat version                   : Version 1\nFormat profile                   : Layer 3\nCodec ID                         : 55\nCodec ID/Hint                    : MP3\nDuration                         : 1h 39mn\nBit rate mode                    : Constant\nBit rate                         : 128 Kbps\nChannel(s)                       : 2 channels\nSampling rate                    : 48.0 KHz\nCompression mode                 : Lossy\nDelay relative to video          : 22ms\nStream size                      : 91.1 MiB (12%)\nAlignment                        : Split accross interleaves\nInterleave, duration             : 33 ms (1.00 video frame)\nInterleave, preload duration     : 500 ms\n\n","torrent":{"xt":"urn:btih:b60415582df5a5e0f11f17fdc83abaa5e5186438","amp;dn":"The+Vow+2012+CAM+XviD-INFERNO","amp;tr":["udp%3A%2F%2Ftracker.openbittorrent.com%3A80","udp%3A%2F%2Fopen.demonii.com%3A1337","udp%3A%2F%2Ftracker.coppersurfer.tk%3A6969","udp%3A%2F%2Fexodus.desync.com%3A6969"],"infoHash":"b60415582df5a5e0f11f17fdc83abaa5e5186438","infoHashBuffer":{"type":"Buffer","data":[182,4,21,88,45,245,165,224,241,31,23,253,200,58,186,165,229,24,100,56]},"announce":[],"urlList":[]}}